<svg width="523" height="364" viewBox="0 0 523 364" fill="none" xmlns="http://www.w3.org/2000/svg">
    <path d="M195.918 363.555H14.4976C7.25254 363.555 1.3584 357.66 1.3584 350.415V13.1392C1.3584 5.89414 7.25254 0 14.4976 0H195.918C203.163 0 209.057 5.89414 209.057 13.1392V350.415C209.057 357.66 203.163 363.555 195.918 363.555ZM14.4976 1.69885C8.18948 1.69885 3.05725 6.83108 3.05725 13.1392V350.415C3.05725 356.724 8.18948 361.856 14.4976 361.856H195.918C202.226 361.856 207.359 356.724 207.359 350.415V13.1392C207.359 6.83108 202.226 1.69885 195.918 1.69885H14.4976Z" fill="#3F3D56"/>
    <path d="M521.281 171.505C520.564 170.295 517.461 171.59 516.891 170.493C516.323 169.399 519.205 167.733 520.852 163.927C521.149 163.24 523.021 158.915 521.635 157.58C519.009 155.05 506.992 165.49 502.786 162.074C501.863 161.324 501.218 159.827 498.425 157.397C497.313 156.43 496.641 155.994 495.991 156.156C495.068 156.387 494.995 157.622 494.006 160.05C492.522 163.692 491.644 163.472 490.779 166.377C490.138 168.534 490.284 169.788 489.529 170.033C488.46 170.378 487.476 168.091 486.122 168.295C484.74 168.504 483.904 171.168 483.64 173.163C483.145 176.905 484.519 179.375 485.281 181.972C486.109 184.794 486.6 189.086 484.688 195.161L465.766 248.476C469.943 237.536 482.039 207.547 487.122 196.402C488.589 193.185 490.209 189.922 493.536 188.634C496.739 187.394 501.137 188.134 506.745 186.783C507.4 186.626 509.217 186.163 509.446 185.094C509.635 184.21 508.566 183.717 508.73 182.89C508.951 181.779 511.053 181.766 513.636 180.485C515.458 179.582 516.592 178.507 517.568 177.584C517.862 177.305 522.236 173.114 521.281 171.505H521.281V171.505Z" fill="#F2F2F2"/>
    <path d="M446.833 199.571C446.032 199.575 445.773 201.471 445.07 201.434C444.369 201.398 444.383 199.502 442.99 197.596C442.739 197.252 441.156 195.085 440.101 195.38C438.101 195.939 439.758 204.85 436.868 205.928C436.234 206.165 435.313 206.049 433.314 206.719C432.519 206.986 432.111 207.19 432.003 207.556C431.85 208.075 432.435 208.467 433.341 209.653C434.7 211.433 434.339 211.8 435.516 213.063C436.389 214 437.047 214.29 436.949 214.731C436.81 215.355 435.403 215.178 435.113 215.902C434.817 216.641 435.883 217.819 436.786 218.524C438.48 219.847 440.089 219.885 441.583 220.261C443.207 220.669 445.455 221.666 447.886 224.357L468.593 249.028C464.429 243.821 453.2 229.231 449.197 223.521C448.041 221.872 446.907 220.136 447.235 218.131C447.55 216.202 449.183 214.256 450.138 211.114C450.249 210.747 450.547 209.722 450.088 209.301C449.709 208.954 449.158 209.336 448.799 209.016C448.318 208.588 448.918 207.552 449.035 205.915C449.117 204.76 448.917 203.893 448.745 203.148C448.694 202.923 447.899 199.567 446.833 199.571V199.571H446.833V199.571Z" fill="#F2F2F2"/>
    <path d="M462.802 203.156L462.319 198.851L462.54 198.525C463.559 197.015 464.079 195.542 464.085 194.143C464.086 193.92 464.076 193.698 464.065 193.471C464.024 192.573 463.972 191.457 464.554 190.156C464.88 189.43 465.797 187.751 467.175 187.958C467.546 188.01 467.827 188.181 468.04 188.38C468.071 188.33 468.103 188.281 468.138 188.227C468.567 187.572 468.907 187.291 469.234 187.021C469.486 186.813 469.746 186.599 470.153 186.092C470.332 185.869 470.471 185.674 470.588 185.51C470.945 185.013 471.411 184.42 472.232 184.431C473.109 184.472 473.568 185.198 473.873 185.678C474.416 186.534 474.663 187.152 474.826 187.561C474.885 187.711 474.953 187.879 474.987 187.931C475.27 188.347 477.568 187.958 478.434 187.817C480.378 187.493 482.061 187.212 482.754 188.439C483.251 189.316 482.882 190.476 481.624 191.979C481.233 192.446 480.816 192.802 480.446 193.08C480.752 193.263 481.027 193.544 481.138 193.985C481.4 195.028 480.503 196.074 478.473 197.096C477.969 197.352 477.29 197.693 476.339 197.857C475.891 197.934 475.488 197.953 475.143 197.963C475.136 198.163 475.089 198.379 474.967 198.601C474.611 199.256 473.869 199.568 472.75 199.493C471.52 199.429 470.506 199.194 469.613 198.988C468.832 198.809 468.16 198.658 467.632 198.693C466.653 198.772 465.898 199.556 465.012 200.572L462.802 203.156H462.802V203.156Z" fill="#F2F2F2"/>
    <path d="M465.039 177.524L460.997 179.083L460.625 178.952C458.907 178.349 457.349 178.22 455.994 178.569C455.779 178.624 455.567 178.691 455.35 178.758C454.492 179.026 453.425 179.36 452.019 179.127C451.234 178.995 449.377 178.534 449.229 177.148C449.185 176.776 449.279 176.462 449.417 176.205C449.361 176.187 449.305 176.169 449.244 176.149C448.502 175.9 448.144 175.643 447.8 175.395C447.535 175.204 447.262 175.007 446.668 174.742C446.407 174.625 446.183 174.54 445.994 174.468C445.423 174.249 444.732 173.949 444.534 173.152C444.352 172.293 444.937 171.665 445.324 171.248C446.015 170.505 446.549 170.11 446.904 169.849C447.034 169.753 447.179 169.645 447.221 169.599C447.551 169.22 446.593 167.096 446.236 166.294C445.429 164.495 444.731 162.939 445.741 161.957C446.464 161.254 447.68 161.317 449.452 162.152C450.004 162.412 450.454 162.725 450.817 163.013C450.916 162.67 451.118 162.333 451.516 162.114C452.459 161.596 453.698 162.198 455.202 163.902C455.577 164.325 456.079 164.895 456.479 165.773C456.667 166.187 456.788 166.572 456.885 166.904C457.08 166.86 457.301 166.85 457.547 166.912C458.271 167.09 458.761 167.729 458.972 168.83C459.222 170.037 459.252 171.076 459.279 171.993C459.304 172.794 459.328 173.482 459.496 173.984C459.821 174.911 460.771 175.442 461.978 176.041L465.039 177.524L465.038 177.524H465.039V177.524Z" fill="#F2F2F2"/>
    <path d="M462.802 164.842L462.319 160.536L462.54 160.21C463.559 158.701 464.079 157.227 464.085 155.828C464.086 155.606 464.076 155.383 464.065 155.157C464.024 154.259 463.972 153.142 464.554 151.841C464.88 151.116 465.797 149.436 467.175 149.644C467.546 149.696 467.827 149.866 468.04 150.066C468.071 150.016 468.103 149.966 468.138 149.912C468.567 149.257 468.907 148.977 469.234 148.706C469.486 148.499 469.746 148.284 470.153 147.777C470.332 147.555 470.471 147.359 470.588 147.195C470.945 146.698 471.411 146.106 472.232 146.116C473.109 146.158 473.568 146.883 473.873 147.364C474.416 148.22 474.663 148.837 474.826 149.247C474.885 149.397 474.953 149.565 474.987 149.617C475.27 150.033 477.568 149.644 478.434 149.503C480.378 149.178 482.061 148.898 482.754 150.124C483.251 151.001 482.882 152.161 481.624 153.664C481.233 154.132 480.816 154.487 480.446 154.766C480.752 154.949 481.027 155.229 481.138 155.67C481.4 156.714 480.503 157.759 478.473 158.782C477.969 159.038 477.29 159.379 476.339 159.543C475.891 159.62 475.488 159.638 475.143 159.649C475.136 159.848 475.089 160.065 474.967 160.287C474.611 160.942 473.869 161.254 472.75 161.179C471.52 161.114 470.506 160.879 469.613 160.674C468.832 160.495 468.16 160.343 467.632 160.378C466.653 160.457 465.898 161.241 465.012 162.258L462.802 164.842H462.802V164.842Z" fill="#F2F2F2"/>
    <path d="M467.207 248.407L466.304 247.841L466.086 246.8L466.304 247.841L465.253 247.962C465.236 247.864 465.179 247.64 465.093 247.288C464.622 245.364 463.186 239.506 461.989 230.28C461.153 223.84 460.68 217.22 460.583 210.599C460.485 203.968 460.799 198.948 461.05 194.913C461.241 191.87 461.471 188.972 461.698 186.149C462.301 178.607 462.869 171.484 462.446 163.597C462.353 161.836 462.156 158.171 460.015 154.272C458.773 152.01 457.062 150.002 454.93 148.306L456.256 146.639C458.61 148.514 460.503 150.738 461.882 153.249C464.256 157.573 464.47 161.566 464.573 163.485C465.003 171.511 464.428 178.703 463.819 186.317C463.595 189.13 463.364 192.015 463.175 195.046C462.925 199.043 462.615 204.02 462.711 210.566C462.807 217.107 463.275 223.647 464.099 230.006C465.282 239.115 466.696 244.885 467.161 246.781C467.408 247.794 467.46 248.006 467.207 248.407V248.407V248.407Z" fill="#F2F2F2"/>
    <path d="M451.026 151.687C450.939 151.687 450.85 151.685 450.761 151.679C448.948 151.581 447.27 150.496 445.771 148.455C445.068 147.495 444.709 146.399 443.992 144.214C443.88 143.878 443.34 142.169 443.012 139.818C442.796 138.282 442.823 137.639 443.128 137.072C443.466 136.44 444.012 135.999 444.628 135.702C444.601 135.498 444.623 135.288 444.711 135.074C445.074 134.187 446.038 134.303 446.56 134.359C446.824 134.392 447.153 134.436 447.509 134.417C448.068 134.39 448.368 134.224 448.824 133.975C449.259 133.735 449.801 133.438 450.604 133.274C452.188 132.943 453.515 133.392 453.953 133.54C456.255 134.307 457.39 136.097 458.704 138.169C458.966 138.585 459.865 140.098 460.458 142.173C460.887 143.67 460.826 144.335 460.697 144.83C460.435 145.846 459.817 146.428 458.247 147.713C456.606 149.058 455.783 149.731 455.076 150.141C453.431 151.091 452.398 151.687 451.026 151.687V151.687H451.026V151.687Z" fill="#F2F2F2"/>
    <path d="M209.563 149.929H0.852539V204.139H209.563V149.929Z" fill="#EC9D1D"/>
    <path d="M133.669 0.849609H79.458V362.706H133.669V0.849609Z" fill="#EC9D1D"/>
    <path opacity="0.2" d="M135.672 200.057C136.056 198.564 136.285 197.012 136.341 195.413L204.143 133.665L145.866 105.204L120.182 173.695C118.426 173.236 116.594 172.967 114.695 172.967C113.687 172.967 112.702 173.06 111.73 173.193L86.2344 105.204L27.958 133.665L93.0949 192.986C93.0529 193.537 93.0108 194.089 93.0108 194.652C93.0108 196.522 93.2725 198.326 93.7175 200.057C53.7904 212.535 37.4449 250.218 37.4449 250.218L87.5897 290.876C84.599 260.968 102.863 230.35 112.737 216.237C113.383 216.295 114.034 216.336 114.695 216.336C115.356 216.336 116.007 216.295 116.653 216.237C126.527 230.35 144.791 260.968 141.8 290.876L191.945 250.218C191.945 250.218 175.6 212.535 135.673 200.057L135.673 200.057H135.672Z" fill="black"/>
    <path d="M143.035 276.226C142.45 276.226 141.861 276.099 141.304 275.838C139.897 275.182 139.007 273.812 138.983 272.264C138.572 246.045 123.621 220.311 114.746 207.306C114.153 206.438 113.13 205.919 112.007 205.919H112.002C110.839 205.919 109.815 206.438 109.223 207.306C100.348 220.311 85.3972 246.045 84.9858 272.264C84.9613 273.811 84.0721 275.182 82.6644 275.838C81.2426 276.505 79.6026 276.303 78.3853 275.317L36.7061 241.522C35.2184 240.315 34.7817 238.202 35.668 236.495C39.8811 228.382 56.1011 201.036 87.9335 189.791C89.354 189.289 90.2167 187.875 90.0309 186.351C89.9276 185.5 89.8754 184.645 89.8754 183.811C89.8774 182.815 89.4971 181.911 88.8318 181.306L28.9116 126.735C27.9178 125.83 27.4383 124.495 27.6283 123.165C27.8187 121.834 28.6536 120.687 29.8614 120.097L79.7507 95.7334C80.7739 95.2332 81.968 95.1888 83.0277 95.6094C84.0866 96.0308 84.9232 96.8848 85.3234 97.9516L108.455 159.637C108.933 160.91 110.157 161.742 111.547 161.707C112.595 161.683 113.658 161.743 114.718 161.881C116.213 162.081 117.625 161.237 118.148 159.839L141.356 97.9516C141.756 96.8848 142.593 96.0308 143.652 95.6094C144.711 95.1893 145.906 95.2336 146.929 95.7334L196.817 120.097C198.025 120.687 198.861 121.834 199.051 123.166C199.241 124.495 198.761 125.83 197.768 126.735L134.99 183.908C134.405 184.44 134.041 185.168 133.965 185.955C133.948 186.125 133.93 186.295 133.91 186.465C133.738 187.896 134.627 189.294 136.025 189.788C167.865 201.03 184.087 228.381 188.301 236.495C189.187 238.202 188.751 240.315 187.263 241.522L145.583 275.317C144.843 275.917 143.945 276.226 143.035 276.226H143.035H143.035Z" fill="#EC9D1D"/>
    <path d="M495.052 363.888H320.017C312.772 363.888 306.877 357.993 306.877 350.748V261.689C306.877 254.444 312.772 248.55 320.017 248.55H495.052C502.297 248.55 508.191 254.444 508.191 261.689V350.748C508.191 357.993 502.297 363.888 495.052 363.888V363.888ZM320.017 250.249C313.708 250.249 308.576 255.381 308.576 261.689V350.748C308.576 357.057 313.708 362.189 320.017 362.189H495.052C501.36 362.189 506.492 357.057 506.492 350.748V261.689C506.492 255.381 501.36 250.249 495.052 250.249H320.017Z" fill="#3F3D56"/>
    <path d="M425.103 248.651H395.198V363.785H425.103V248.651Z" fill="#EC9D1D"/>
    <path d="M507.342 292.014H307.727V321.919H507.342V292.014Z" fill="#EC9D1D"/>
    <path opacity="0.2" d="M401.697 325.572C402.521 325.784 403.377 325.91 404.259 325.941L438.322 363.343L454.022 331.196L416.239 317.027C416.492 316.059 416.641 315.048 416.641 314C416.641 313.444 416.59 312.901 416.516 312.365L454.022 298.3L438.322 266.152L405.598 302.085C405.294 302.061 404.989 302.038 404.679 302.038C403.647 302.038 402.652 302.183 401.697 302.428C394.813 280.403 374.026 271.386 374.026 271.386L351.598 299.048C368.096 297.398 384.986 307.473 392.771 312.92C392.74 313.276 392.717 313.635 392.717 314C392.717 314.365 392.74 314.724 392.771 315.081C384.986 320.527 368.096 330.602 351.598 328.953L374.026 356.615C374.026 356.615 394.813 347.598 401.697 325.572L401.697 325.572V325.572Z" fill="black"/>
    <path d="M439.55 358.2C438.873 358.2 438.222 357.917 437.758 357.408L406.218 322.775C405.957 322.49 405.579 322.309 405.151 322.266L405.015 322.252C404.245 322.166 403.542 322.583 403.301 323.267C397.075 340.917 381.918 349.9 377.422 352.233C376.408 352.76 375.15 352.495 374.429 351.603L355.784 328.608C355.193 327.88 355.074 326.898 355.472 326.045C355.865 325.205 356.682 324.675 357.604 324.661C372.018 324.438 386.18 316.211 393.339 311.327C393.77 311.032 394.027 310.525 394.026 309.969C394.027 309.388 393.77 308.881 393.339 308.587C386.181 303.703 372.021 295.476 357.604 295.253C356.681 295.239 355.865 294.708 355.472 293.868C355.074 293.015 355.193 292.033 355.784 291.305L374.429 268.31C375.151 267.42 376.41 267.155 377.421 267.679C381.918 270.013 397.071 278.995 403.298 296.639C403.539 297.323 404.228 297.749 404.922 297.666C405.678 297.57 406.43 297.549 407.157 297.602L437.758 264C438.3 263.406 439.099 263.118 439.895 263.233C440.691 263.348 441.377 263.847 441.73 264.569L455.172 292.093C455.471 292.706 455.498 293.421 455.245 294.055C454.993 294.688 454.482 295.188 453.844 295.427L419.814 308.188C419.188 308.423 418.779 309.035 418.796 309.71L418.799 309.956C418.799 310.486 418.762 311.024 418.69 311.557C418.596 312.242 419.024 312.924 419.706 313.18L453.844 325.982C454.483 326.222 454.994 326.722 455.246 327.356C455.498 327.989 455.471 328.704 455.172 329.317L441.73 356.84C441.377 357.563 440.691 358.062 439.895 358.176C439.78 358.192 439.665 358.2 439.55 358.2V358.2Z" fill="#EC9D1D"/>
    <path d="M281.025 145.837H253.651V136.823C253.651 121.715 265.917 109.449 281.025 109.449H281.025V145.837V145.837Z" fill="#2F2E41"/>
    <path d="M274.958 129.01L279.665 150.18L252.084 145.6L263.323 125.579L274.958 129.01Z" fill="#FFB6B6"/>
    <path opacity="0.1" d="M274.958 129.01L279.665 150.18L252.084 145.6L263.323 125.579L274.958 129.01Z" fill="black"/>
    <path d="M274.958 174.233H248.516V213.368H274.958V174.233Z" fill="#FFB6B6"/>
    <path d="M292.145 245.362L286.328 276.564C286.328 276.564 290.03 298.247 278.924 320.458L271.52 343.199L260.415 341.612C260.415 341.612 267.29 324.689 267.29 317.285C267.29 309.881 268.876 281.324 268.876 281.324L268.083 248.737L292.145 245.362V245.362Z" fill="#FFB6B6"/>
    <path d="M258.828 341.083C258.828 341.083 271.52 336.324 272.578 343.199L272.049 346.372C272.049 346.372 276.808 360.65 269.933 361.708C263.058 362.766 256.712 364.352 256.183 361.179C255.654 358.006 255.663 354.045 256.981 351.266C258.299 348.487 258.828 341.083 258.828 341.083V341.083Z" fill="#2F2E41"/>
    <path d="M252.111 240.522L249.021 272.111C249.021 272.111 239.435 291.909 243.926 316.333L244.713 340.235L255.822 341.8C255.822 341.8 253.925 323.632 255.984 316.521C258.043 309.409 264.461 281.537 264.461 281.537L274.286 250.456L252.111 240.522V240.522V240.522Z" fill="#FFB6B6"/>
    <path d="M257.493 341.733C257.493 341.733 246.626 333.631 243.698 339.941L243.323 343.136C243.323 343.136 234.931 358.928 241.24 361.856C247.55 364.784 253.054 364.672 254.444 361.772C255.835 358.871 256.928 355.064 256.435 352.028C255.942 348.992 257.493 341.733 257.493 341.733L257.493 341.733V341.733Z" fill="#2F2E41"/>
    <path d="M285.27 195.122L308.011 243.247C308.011 243.247 262.266 266.252 235.294 266.252L248.686 195.122H285.27L285.27 195.122V195.122Z" fill="#2F2E41"/>
    <path d="M264.91 138.8L278.131 140.915L277.073 174.232L291.881 203.848L272.842 213.367C272.842 213.367 258.035 185.338 255.391 167.886C252.746 150.434 254.333 137.742 254.333 137.742L264.91 138.8L264.91 138.8V138.8Z" fill="#E6E6E6"/>
    <path d="M254.861 139.858L241.64 141.973L242.698 175.29L239.525 205.963L246.929 214.425C246.929 214.425 261.736 186.396 264.381 168.944C267.025 151.492 265.438 138.8 265.438 138.8L254.861 139.857L254.861 139.858V139.858Z" fill="#E6E6E6"/>
    <path d="M275.222 141.71L278.131 140.916C278.131 140.916 288.443 139.594 290.03 143.825C291.616 148.056 291.087 172.911 291.087 172.911C291.087 172.911 293.816 203.418 283.197 203.766C272.578 204.113 274.693 178.729 274.693 178.729L275.222 141.71V141.71Z" fill="#E6E6E6"/>
    <path d="M270.343 134.82C277.902 134.82 284.03 128.692 284.03 121.133C284.03 113.574 277.902 107.446 270.343 107.446C262.784 107.446 256.656 113.574 256.656 121.133C256.656 128.692 262.784 134.82 270.343 134.82Z" fill="#FFB6B6"/>
    <path d="M266.061 139.97C268.997 139.225 272.326 142.361 273.497 146.976C273.99 148.813 274.036 150.742 273.631 152.601L274.893 157.847L274.986 157.842L284.938 181.296C287.251 186.749 287.007 193.01 284.056 198.146C282.3 201.201 279.995 203.255 277.289 201.159C272.799 197.679 269.866 177.758 268.527 166.314L265.43 154.682C264.187 153.241 263.308 151.523 262.865 149.672C261.694 145.059 263.125 140.715 266.061 139.97H266.061V139.97Z" fill="#FFB6B6"/>
    <path d="M253.275 141.71L250.366 140.916C250.366 140.916 240.054 139.594 238.467 143.825C236.881 148.056 237.41 172.911 237.41 172.911C237.41 172.911 234.681 203.418 245.3 203.766C255.919 204.113 253.804 178.729 253.804 178.729L253.275 141.71V141.71Z" fill="#E6E6E6"/>
    <path d="M262.436 139.97C259.5 139.225 256.171 142.361 255 146.976C254.507 148.813 254.461 150.742 254.866 152.601L253.604 157.847L253.512 157.842L243.56 181.296C241.246 186.749 241.49 193.01 244.441 198.146C246.197 201.201 248.502 203.255 251.208 201.159C255.698 197.679 258.631 177.758 259.971 166.314L263.067 154.682C264.31 153.241 265.189 151.523 265.632 149.672C266.803 145.059 265.372 140.715 262.436 139.97H262.436V139.97Z" fill="#FFB6B6"/>
    <path d="M244.139 132.206C244.835 130.089 246.21 128.236 246.825 126.094C247.641 123.25 249.379 129.559 249.549 126.605C249.871 120.991 258.44 106.548 263.332 103.774C268.224 101 271.034 101.836 276.018 104.442C276.018 104.442 278.437 104.596 281.449 106.083C284.461 107.57 287.172 109.951 288.343 113.099C289.272 115.594 289.169 118.335 289.479 120.979C290.344 128.346 294.473 135.352 293.587 142.716C293.31 145.013 292.437 147.389 290.558 148.741C288.68 150.092 285.645 149.945 284.408 147.989C283.986 147.322 283.808 146.53 283.446 145.828C283.085 145.126 282.431 144.471 281.642 144.493C280.455 144.526 279.852 146.118 280.319 147.209C280.787 148.3 281.887 148.958 282.919 149.544C280.46 150.65 277.411 150.306 275.26 148.679C273.11 147.053 271.949 144.211 272.345 141.545C272.903 137.787 278.377 138.564 279.022 134.82C279.492 132.095 281.14 127.534 280.691 124.805C280.242 122.076 278.085 125.381 280.358 123.804C277.858 125.009 272.511 116.765 269.894 115.842C267.277 114.918 265.058 112.919 263.868 110.412C261.093 114.436 258.651 113.343 257.657 118.129C256.663 122.915 257.582 133.788 261.675 136.46C260.037 137.577 258.731 139.176 257.963 141.004C257.527 142.039 257.245 143.172 256.522 144.032C255.142 145.675 252.594 145.775 250.562 145.084C248.043 144.228 245.89 142.347 244.702 139.966C243.515 137.585 243.308 134.734 244.139 132.206L244.139 132.206L244.139 132.206Z" fill="#2F2E41"/>
</svg>
